<svg width="18" height="18" viewBox="0 0 18 18" fill="none" xmlns="http://www.w3.org/2000/svg">
<path d="M13.1665 3.99996H17.3332V5.66663H15.6665V16.5C15.6665 16.721 15.5787 16.9329 15.4224 17.0892C15.2661 17.2455 15.0542 17.3333 14.8332 17.3333H3.1665C2.94549 17.3333 2.73353 17.2455 2.57725 17.0892C2.42097 16.9329 2.33317 16.721 2.33317 16.5V5.66663H0.666504V3.99996H4.83317V1.49996C4.83317 1.27895 4.92097 1.06698 5.07725 0.910704C5.23353 0.754423 5.44549 0.666626 5.6665 0.666626H12.3332C12.5542 0.666626 12.7661 0.754423 12.9224 0.910704C13.0787 1.06698 13.1665 1.27895 13.1665 1.49996V3.99996ZM6.49984 8.16663V13.1666H8.1665V8.16663H6.49984ZM9.83317 8.16663V13.1666H11.4998V8.16663H9.83317ZM6.49984 2.33329V3.99996H11.4998V2.33329H6.49984Z" fill="#C4C4C4"/>
</svg>
