<svg width="221" height="302" viewBox="0 0 221 302" fill="none" xmlns="http://www.w3.org/2000/svg">
<rect x="1" y="1" width="219" height="300" rx="15" stroke="#FF7251" stroke-width="2" stroke-dasharray="5 10"/>
<path d="M107.333 147.833C107.609 147.833 107.833 147.61 107.833 147.333V129.333C107.833 129.057 108.057 128.833 108.333 128.833H113.666C113.942 128.833 114.166 129.057 114.166 129.333V147.333C114.166 147.61 114.39 147.833 114.666 147.833H132.666C132.942 147.833 133.166 148.057 133.166 148.333V153.667C133.166 153.943 132.942 154.167 132.666 154.167H114.666C114.39 154.167 114.166 154.391 114.166 154.667V172.667C114.166 172.943 113.942 173.167 113.666 173.167H108.333C108.057 173.167 107.833 172.943 107.833 172.667V154.667C107.833 154.391 107.609 154.167 107.333 154.167H89.333C89.0569 154.167 88.833 153.943 88.833 153.667V148.333C88.833 148.057 89.0569 147.833 89.333 147.833H107.333Z" fill="#FF7251"/>
</svg>
