<svg width="196" height="186" viewBox="0 0 196 186" fill="none" xmlns="http://www.w3.org/2000/svg">
<path d="M196 98C196 127.818 182.683 154.526 161.672 172.5C144.545 187.151 122.306 183 98 183C73.6942 183 51.455 187.151 34.3281 172.5C13.3171 154.526 0 127.818 0 98C0 43.8761 43.8761 0 98 0C152.124 0 196 43.8761 196 98Z" fill="#FF7251" fill-opacity="0.1"/>
<rect x="15" y="84.8774" width="162" height="20" rx="6" fill="#FF7251"/>
<path d="M26 104.877H167L158.194 172.806C157.225 180.282 150.858 185.877 143.319 185.877H49.262C41.6885 185.877 35.303 180.232 34.375 172.715L26 104.877Z" fill="#FF7251"/>
<path fill-rule="evenodd" clip-rule="evenodd" d="M167 104.877H26L26.8642 111.877H166.093L167 104.877Z" fill="#E45D3E"/>
<path d="M69 146.366C69 144.183 70.7691 142.414 72.9514 142.414C75.1338 142.414 76.9029 144.183 76.9029 146.366V185.877H69V146.366Z" fill="#E45D3E"/>
<path d="M92.9028 135.829C92.9028 133.647 94.672 131.877 96.8543 131.877C99.0366 131.877 100.806 133.647 100.806 135.829V185.877H92.9028V135.829Z" fill="#E45D3E"/>
<path d="M116.806 146.366C116.806 144.183 118.575 142.414 120.757 142.414C122.939 142.414 124.709 144.183 124.709 146.366V185.877H116.806V146.366Z" fill="#E45D3E"/>
<rect x="155.051" y="32" width="12" height="93.1172" rx="3" transform="rotate(46.0603 155.051 32)" fill="#523CBD"/>
<rect x="183.117" y="93" width="12" height="93.1172" rx="3" transform="rotate(90 183.117 93)" fill="#523CBD"/>
<circle cx="94" cy="98" r="9" fill="#523CBD"/>
<circle cx="94" cy="98" r="5" fill="#423097"/>
<rect x="105" y="98.5" width="72" height="1" fill="#423097"/>
<rect x="103" y="90.3833" width="72" height="1" transform="rotate(-44.4084 103 90.3833)" fill="#423097"/>
</svg>
