<svg width="511" height="513" viewBox="0 0 511 513" fill="none" xmlns="http://www.w3.org/2000/svg">
<path d="M255.5 512.15C396.606 512.15 510.995 397.691 510.995 256.5C510.995 115.309 396.606 0.850586 255.5 0.850586C114.394 0.850586 0.00463867 115.309 0.00463867 256.5C0.00463867 397.691 114.394 512.15 255.5 512.15Z" fill="#FFEEEA"/>
<path d="M57.6068 215.731V228.025C57.6068 235.858 63.9499 242.148 71.7216 242.148H83.4364L112.695 398.534C113.952 405.224 119.781 410.084 126.581 410.084H360.933C367.733 410.084 373.562 405.224 374.819 398.534L401.906 253.698C403.163 247.008 408.991 242.148 415.792 242.148C423.621 242.148 429.907 235.801 429.907 228.025V215.731C429.907 207.897 423.563 201.608 415.792 201.608H71.7788C63.9499 201.551 57.6068 207.897 57.6068 215.731ZM215.727 350.046C215.727 358.908 208.755 366.056 200.184 366.056C191.612 366.056 184.64 358.908 184.64 350.046V276.97C184.64 268.107 191.612 260.96 200.184 260.96C204.469 260.96 208.355 262.733 211.155 265.649C213.956 268.565 215.727 272.567 215.727 276.97V350.046ZM270.643 350.046C270.643 358.908 263.672 366.056 255.1 366.056C246.528 366.056 239.557 358.908 239.557 350.046V276.97C239.557 268.107 246.528 260.96 255.1 260.96C259.386 260.96 263.272 262.733 266.072 265.649C268.872 268.565 270.643 272.567 270.643 276.97V350.046ZM325.503 350.046C325.503 358.908 318.531 366.056 309.959 366.056C301.387 366.056 294.416 358.908 294.416 350.046V276.97C294.416 268.107 301.387 260.96 309.959 260.96C314.245 260.96 318.131 262.733 320.931 265.649C323.731 268.565 325.503 272.567 325.503 276.97V350.046Z" fill="#FE7251"/>
<path d="M257.672 364.283L249.957 364.169C248.528 364.112 247.157 363.826 245.843 363.311C244.528 362.797 243.271 362.11 242.185 361.253C240.014 359.48 238.356 357.021 237.614 354.277C237.499 353.934 237.442 353.591 237.385 353.248C237.328 352.905 237.271 352.561 237.214 352.218L237.156 351.132V350.16V346.272C237.042 336.037 236.756 325.801 236.528 315.566L235.842 284.861L235.671 277.199L235.614 273.368V272.91V272.339C235.614 271.938 235.614 271.538 235.671 271.138L235.842 269.937C235.899 269.537 236.014 269.137 236.128 268.794C236.528 267.25 237.214 265.763 238.071 264.391C238.985 263.076 240.071 261.875 241.385 260.903C243.9 258.901 247.214 257.872 250.414 257.815H254.243H256.186H257.157H257.614C257.786 257.815 258.014 257.815 258.186 257.815C261.443 257.929 264.643 259.13 267.1 261.189C269.558 263.247 271.386 266.106 272.072 269.251C272.186 269.651 272.244 270.051 272.301 270.452C272.358 270.852 272.415 271.252 272.415 271.653L272.472 272.853V273.825L272.415 277.656C272.186 287.891 271.901 298.127 271.786 308.362C271.729 318.597 272.015 328.832 272.015 339.067C272.015 341.64 271.958 344.156 271.958 346.729C271.901 347.987 271.901 349.302 271.843 350.56V351.018L271.786 351.589C271.729 351.99 271.729 352.333 271.672 352.733C271.615 353.133 271.558 353.476 271.443 353.877C271.329 354.22 271.215 354.62 271.101 354.963C270.643 356.393 269.901 357.708 268.986 358.908C268.072 360.109 266.986 361.081 265.786 361.939C263.443 363.54 260.529 364.34 257.672 364.283ZM257.672 361.539C258.814 361.481 259.9 361.253 260.986 360.853C262.015 360.452 262.986 359.88 263.843 359.137C264.643 358.394 265.386 357.593 265.958 356.621C266.472 355.706 266.872 354.677 267.1 353.648C267.158 353.362 267.215 353.133 267.272 352.905C267.272 352.619 267.329 352.39 267.329 352.104C267.386 351.818 267.329 351.589 267.329 351.304V350.903V350.446C267.272 349.188 267.272 347.873 267.215 346.615C267.215 344.042 267.158 341.526 267.158 338.953C267.158 328.718 267.5 318.483 267.386 308.247C267.329 298.012 266.986 287.777 266.758 277.542L266.7 273.711V272.739L266.643 271.996C266.643 271.767 266.586 271.538 266.529 271.309C266.472 271.081 266.415 270.852 266.358 270.623C265.9 268.736 264.7 267.135 263.215 265.935C262.472 265.363 261.615 264.905 260.757 264.619C259.9 264.334 258.929 264.105 258.014 264.105H250.471C248.585 264.105 246.757 264.677 245.214 265.82C243.671 266.907 242.528 268.508 241.957 270.337L241.785 271.024L241.671 271.71C241.614 271.938 241.614 272.167 241.614 272.453L241.557 272.853V273.311L241.499 277.142L241.328 284.804L240.642 315.509C240.414 325.744 240.185 335.979 240.014 346.215L239.957 350.046V351.018L240.014 351.875C240.014 352.161 240.071 352.447 240.128 352.733C240.128 353.019 240.242 353.305 240.299 353.591C240.814 355.821 242.128 357.822 243.9 359.309C245.671 360.738 247.957 361.596 250.243 361.653C250.528 361.653 250.814 361.653 251.157 361.653H252.128L254.071 361.596L257.672 361.539Z" fill="black"/>
<path d="M204.069 364.283L196.355 364.169C194.926 364.112 193.555 363.826 192.24 363.311C190.926 362.797 189.669 362.111 188.583 361.253C186.412 359.48 184.754 357.022 184.012 354.277C183.897 353.934 183.84 353.591 183.783 353.248C183.726 352.905 183.669 352.562 183.612 352.218L183.554 351.132V350.16L183.497 346.329C183.383 336.094 183.097 325.859 182.869 315.624L182.183 284.918L182.011 277.256L181.954 273.425V272.968V272.396C181.954 271.996 181.954 271.595 182.011 271.195L182.183 269.994C182.24 269.594 182.354 269.194 182.469 268.851C182.869 267.307 183.554 265.82 184.412 264.448C185.326 263.133 186.412 261.932 187.726 260.96C190.24 258.959 193.555 257.929 196.755 257.872H200.584H202.527H203.498H203.955C204.127 257.872 204.355 257.872 204.527 257.872C207.784 257.987 210.984 259.187 213.441 261.246C215.898 263.304 217.727 266.163 218.413 269.308C218.527 269.708 218.584 270.109 218.641 270.509C218.699 270.909 218.756 271.309 218.756 271.71L218.813 272.911V273.883L218.756 277.714C218.527 287.949 218.241 298.184 218.127 308.419C218.07 318.654 218.356 328.889 218.356 339.124C218.356 341.697 218.299 344.213 218.299 346.786C218.241 348.044 218.241 349.359 218.184 350.617V351.075L218.127 351.647C218.07 352.047 218.07 352.39 218.013 352.79C217.956 353.191 217.899 353.534 217.784 353.934C217.67 354.277 217.556 354.677 217.441 355.02C216.984 356.45 216.241 357.765 215.327 358.966C214.413 360.166 213.327 361.138 212.127 361.996C209.841 363.54 206.927 364.341 204.069 364.283ZM204.069 361.539C205.212 361.482 206.298 361.253 207.384 360.853C208.412 360.452 209.384 359.881 210.241 359.137C211.041 358.394 211.784 357.593 212.355 356.621C212.87 355.706 213.27 354.677 213.498 353.648C213.555 353.362 213.613 353.133 213.67 352.905C213.67 352.619 213.727 352.39 213.727 352.104C213.784 351.818 213.727 351.589 213.727 351.304V350.903V350.446C213.67 349.188 213.67 347.873 213.613 346.615C213.613 344.042 213.556 341.526 213.556 338.953C213.556 328.718 213.898 318.483 213.784 308.247C213.727 298.012 213.384 287.777 213.155 277.542L213.098 273.711V272.739L213.041 271.996C213.041 271.767 212.984 271.538 212.927 271.309C212.87 271.081 212.813 270.852 212.755 270.623C212.298 268.736 211.098 267.135 209.613 265.935C208.87 265.363 208.012 264.905 207.155 264.619C206.298 264.334 205.327 264.105 204.412 264.105H196.869C194.983 264.105 193.155 264.677 191.612 265.82C190.069 266.907 188.926 268.508 188.355 270.337L188.183 271.024L188.069 271.71C188.012 271.938 188.012 272.167 188.012 272.453L187.955 272.853V273.311L187.897 277.142L187.726 284.804L187.04 315.509C186.812 325.744 186.583 335.98 186.412 346.215L186.354 350.046V351.018L186.412 351.875C186.412 352.161 186.469 352.447 186.526 352.733C186.526 353.019 186.64 353.305 186.697 353.591C187.212 355.821 188.526 357.822 190.298 359.309C192.069 360.738 194.355 361.596 196.641 361.653C196.926 361.653 197.212 361.653 197.555 361.653H198.526L200.469 361.596L204.069 361.539Z" fill="black"/>
<path d="M313.274 364.283L305.559 364.169C304.13 364.112 302.759 363.826 301.445 363.311C300.13 362.797 298.873 362.111 297.787 361.253C295.616 359.48 293.959 357.022 293.216 354.277C293.101 353.934 293.044 353.591 292.987 353.248C292.93 352.905 292.873 352.562 292.816 352.218L292.759 351.132V350.16L292.701 346.329C292.587 336.094 292.301 325.859 292.073 315.624L291.387 284.918L291.216 277.256L291.158 273.425V272.968V272.396C291.158 271.996 291.158 271.595 291.216 271.195L291.387 269.994C291.444 269.594 291.558 269.194 291.673 268.851C292.073 267.307 292.759 265.82 293.616 264.448C294.53 263.133 295.616 261.932 296.93 260.96C299.444 258.959 302.759 257.929 305.959 257.872H309.788H311.731H312.702H313.159C313.331 257.872 313.559 257.872 313.731 257.872C316.988 257.987 320.188 259.187 322.645 261.246C325.103 263.304 326.931 266.163 327.617 269.308C327.731 269.708 327.788 270.109 327.846 270.509C327.903 270.909 327.96 271.309 327.96 271.71L328.017 272.911V273.883L327.96 277.714C327.731 287.949 327.446 298.184 327.331 308.419C327.274 318.654 327.56 328.889 327.56 339.124C327.56 341.697 327.503 344.213 327.503 346.786C327.446 348.044 327.446 349.359 327.388 350.617V351.075L327.331 351.647C327.274 352.047 327.274 352.39 327.217 352.79C327.16 353.191 327.103 353.534 326.988 353.934C326.874 354.277 326.76 354.677 326.645 355.02C326.188 356.45 325.445 357.765 324.531 358.966C323.617 360.166 322.531 361.138 321.331 361.996C319.045 363.54 316.131 364.341 313.274 364.283ZM313.274 361.539C314.416 361.482 315.502 361.253 316.588 360.853C317.617 360.452 318.588 359.881 319.445 359.137C320.245 358.394 320.988 357.593 321.56 356.621C322.074 355.706 322.474 354.677 322.702 353.648C322.76 353.362 322.817 353.133 322.874 352.905C322.874 352.619 322.931 352.39 322.931 352.104C322.988 351.818 322.931 351.589 322.931 351.304V350.903V350.446C322.874 349.188 322.874 347.873 322.817 346.615C322.817 344.042 322.76 341.526 322.76 338.953C322.76 328.718 323.103 318.483 322.988 308.247C322.931 298.012 322.588 287.777 322.36 277.542L322.302 273.711V272.739L322.245 271.996C322.245 271.767 322.188 271.538 322.131 271.309C322.074 271.081 322.017 270.852 321.96 270.623C321.502 268.736 320.302 267.135 318.817 265.935C318.074 265.363 317.217 264.905 316.359 264.619C315.502 264.334 314.531 264.105 313.616 264.105H306.073C304.187 264.105 302.359 264.677 300.816 265.82C299.273 266.907 298.13 268.508 297.559 270.337L297.387 271.024L297.273 271.71C297.216 271.938 297.216 272.167 297.216 272.453L297.159 272.853V273.311L297.102 277.142L296.93 284.804L296.244 315.509C296.016 325.744 295.787 335.98 295.616 346.215L295.559 350.046V351.018L295.616 351.875C295.616 352.161 295.673 352.447 295.73 352.733C295.73 353.019 295.844 353.305 295.901 353.591C296.416 355.821 297.73 357.822 299.502 359.309C301.273 360.738 303.559 361.596 305.845 361.653C306.13 361.653 306.416 361.653 306.759 361.653H307.73L309.673 361.596L313.274 361.539Z" fill="black"/>
<path d="M421.506 237.974L220.584 237.116L170.354 236.887L120.124 236.83L94.9797 236.773H82.4078H76.1219C75.6076 236.773 75.0932 236.773 74.5218 236.773L73.6646 236.716C73.3789 236.716 73.0932 236.659 72.8646 236.602C71.7788 236.487 70.6931 236.144 69.6645 235.744C67.6072 234.886 65.7215 233.571 64.2928 231.856C62.8642 230.14 61.7785 228.082 61.2642 225.852C61.1499 225.28 61.0356 224.708 60.9784 224.194C60.9213 223.622 60.8641 223.05 60.8641 222.535L60.7498 219.391L60.5784 213.101L60.4641 209.956L60.407 208.412C60.407 207.84 60.407 207.211 60.4641 206.64C60.6927 204.295 61.4927 201.951 62.8071 200.007C64.1214 198.063 65.95 196.347 68.0644 195.204C70.1788 194.06 72.5789 193.488 74.979 193.431L175.44 193.26H275.901L376.362 193.317H401.506H414.077H420.363H421.163H421.563H422.021L422.935 193.374C423.221 193.374 423.506 193.431 423.849 193.488C425.049 193.66 426.192 194.003 427.335 194.46C429.564 195.375 431.564 196.862 433.107 198.749C434.65 200.636 435.735 202.866 436.25 205.21C436.364 205.782 436.478 206.411 436.535 206.983L436.593 207.897V208.355V208.755V211.9V218.19V221.335V222.878C436.535 223.45 436.535 224.079 436.478 224.708C436.193 227.11 435.335 229.454 433.964 231.455C432.592 233.457 430.707 235.115 428.592 236.201C426.364 237.402 423.906 237.974 421.506 237.974ZM421.506 233.971C423.278 233.971 425.049 233.514 426.592 232.713C428.135 231.913 429.507 230.655 430.535 229.225C431.564 227.796 432.135 226.081 432.364 224.308C432.421 223.851 432.421 223.45 432.421 222.993V221.449V218.304V212.014V208.87V208.469C432.421 208.355 432.421 208.241 432.421 208.126L432.364 207.44C432.307 206.983 432.25 206.582 432.192 206.125C431.792 204.41 431.05 202.751 429.907 201.379C428.764 200.007 427.335 198.92 425.678 198.234C424.878 197.948 424.021 197.662 423.106 197.548C422.878 197.548 422.649 197.491 422.478 197.434L421.792 197.376H421.449H421.049H420.249H413.963H401.391H376.247L275.787 197.434H175.326L74.8647 197.262C73.0932 197.262 71.3217 197.662 69.7216 198.463C68.1216 199.263 66.7501 200.464 65.6643 201.951C64.6357 203.437 63.95 205.153 63.6642 206.925C63.6071 207.383 63.6071 207.84 63.55 208.298L63.4928 209.842L63.3785 212.986L63.2071 219.276L63.0928 222.421C63.0928 222.993 63.0928 223.393 63.0928 223.908C63.0928 224.365 63.2071 224.88 63.2642 225.337C63.6071 227.224 64.4071 229.054 65.6072 230.541C66.8072 232.027 68.4073 233.285 70.1788 234.086C71.0931 234.429 72.0074 234.772 72.9789 234.886C73.2075 234.943 73.436 235.001 73.7218 235.001L74.4646 235.058C74.9218 235.115 75.4933 235.058 76.0076 235.115H82.2935H94.8654L120.009 235.058L170.24 235.001L220.47 234.772L421.506 233.971Z" fill="black"/>
<path d="M89.3795 238.031L116.752 380.408L117.609 384.868C117.895 386.297 118.295 387.613 118.809 388.928C119.381 390.243 120.066 391.444 120.809 392.587C121.609 393.731 122.524 394.76 123.552 395.732C125.609 397.619 128.01 399.048 130.581 399.963C131.838 400.421 133.153 400.764 134.524 400.993C135.21 401.107 135.838 401.221 136.524 401.221C136.867 401.221 137.21 401.278 137.553 401.278C137.896 401.278 138.181 401.278 138.581 401.278L175.154 401.336C199.555 401.336 223.899 401.507 248.3 401.564L321.445 401.907L358.018 402.022C360.875 402.079 363.676 401.507 366.247 400.478C368.819 399.449 371.219 397.848 373.219 395.846C375.162 393.845 376.762 391.444 377.733 388.87C378.248 387.555 378.59 386.24 378.876 384.811L379.676 380.294L392.705 308.305C397.105 284.289 401.563 260.331 406.249 236.373L408.649 239.289C355.504 239.175 302.416 239.003 249.214 238.774L89.3795 238.031ZM86.5222 235.687L247.385 234.943C301.102 234.715 354.875 234.543 408.649 234.429H411.563L411.049 237.345C406.706 261.36 402.134 285.318 397.505 309.277L383.448 381.037L382.591 385.554C382.305 387.155 381.848 388.756 381.219 390.3C379.962 393.388 378.133 396.189 375.79 398.477C373.447 400.821 370.647 402.651 367.619 403.909C364.59 405.167 361.218 405.738 358.018 405.738L321.445 405.853L248.3 406.196C223.899 406.31 199.555 406.425 175.154 406.425L138.581 406.482C138.238 406.482 137.781 406.482 137.324 406.482C136.924 406.482 136.467 406.425 136.067 406.425C135.21 406.367 134.41 406.253 133.553 406.081C131.895 405.738 130.295 405.224 128.752 404.538C125.667 403.165 122.866 401.164 120.638 398.705C118.352 396.247 116.638 393.388 115.438 390.3C114.866 388.756 114.409 387.155 114.123 385.554L113.266 381.037L86.5222 235.687Z" fill="black"/>
<path d="M412.02 118.526C412.02 123.672 409.449 128.761 404.763 131.734L269.615 217.389C269.1 217.732 268.586 218.018 268.015 218.247C266.3 230.998 255.328 240.89 242.071 240.89C227.613 240.89 215.898 229.168 215.898 214.702C215.898 200.235 227.613 188.514 242.071 188.514C246.014 188.514 249.728 189.371 253.043 190.915L388.019 105.375C395.277 100.743 404.934 102.916 409.506 110.235C411.22 112.751 412.02 115.667 412.02 118.526Z" fill="#FFF0DF"/>
<path d="M416.42 122.814C416.42 127.961 413.849 133.05 409.163 136.023L274.015 221.678C273.501 222.021 272.986 222.307 272.415 222.535C270.701 235.286 259.729 245.178 246.471 245.178C232.013 245.178 220.299 233.457 220.299 218.99C220.299 204.524 232.013 192.802 246.471 192.802C250.414 192.802 254.129 193.66 257.443 195.204L392.419 109.663C399.677 105.032 409.334 107.204 413.906 114.523C415.62 117.096 416.42 119.955 416.42 122.814Z" fill="#FFD734"/>
<path d="M413.506 118.526C413.449 122.586 411.791 126.531 409.163 129.504C408.534 130.248 407.791 130.934 406.991 131.563C406.248 132.192 405.334 132.764 404.591 133.221L399.905 136.252L381.276 148.259L344.018 172.332L306.702 196.404L288.073 208.469L278.758 214.53L274.129 217.561L271.786 219.047C271.1 219.505 270.072 220.077 269.1 220.648L270.586 218.647C269.615 224.594 266.872 230.197 262.7 234.429C258.529 238.66 253.043 241.576 247.214 242.605C244.299 243.12 241.328 243.12 238.414 242.72C235.499 242.377 232.642 241.462 229.956 240.204C228.585 239.632 227.385 238.774 226.127 238.031L224.356 236.716C223.784 236.259 223.27 235.744 222.699 235.229C220.584 233.171 218.756 230.826 217.327 228.253C215.956 225.623 214.927 222.821 214.355 219.962L214.013 217.79C213.955 217.046 213.898 216.303 213.898 215.56C213.898 215.216 213.841 214.816 213.841 214.473L213.898 213.387C213.955 212.643 213.955 211.9 214.07 211.157L214.413 208.984L214.927 206.811L215.041 206.296L215.213 205.782L215.613 204.753L216.013 203.723L216.47 202.694L216.927 201.665L217.156 201.15L217.441 200.693C217.841 200.064 218.184 199.435 218.584 198.806L219.899 197.033C220.127 196.747 220.356 196.462 220.584 196.176L221.327 195.375C223.327 193.202 225.67 191.258 228.242 189.829C230.813 188.342 233.67 187.313 236.585 186.684L238.814 186.341C239.556 186.226 240.299 186.226 241.042 186.169C241.442 186.169 241.785 186.112 242.185 186.112C242.585 186.112 242.928 186.112 243.328 186.112C244.071 186.112 244.814 186.169 245.557 186.226C248.528 186.512 251.5 187.313 254.3 188.456L251.614 188.628L292.473 162.954L333.389 137.338L374.304 111.722L384.533 105.317L387.105 103.716L388.591 102.916L390.134 102.23C392.248 101.429 394.534 101.086 396.82 101.143C401.334 101.315 405.734 103.259 408.82 106.518C409.22 106.918 409.563 107.376 409.906 107.776C410.249 108.234 410.534 108.691 410.877 109.148C411.506 110.063 411.963 111.093 412.363 112.122C413.163 114.066 413.563 116.296 413.506 118.526ZM410.534 118.526C410.477 116.696 410.077 114.924 409.391 113.265C409.049 112.465 408.591 111.664 408.077 110.921C407.791 110.578 407.563 110.178 407.277 109.835C406.991 109.492 406.706 109.148 406.363 108.863C403.791 106.347 400.305 104.917 396.762 104.917C394.991 104.917 393.219 105.203 391.619 105.889L390.419 106.404L389.276 107.09L386.762 108.691L376.59 115.209L335.96 141.283L295.33 167.3L254.643 193.317L253.328 194.117L251.9 193.488C249.728 192.402 247.385 191.658 244.928 191.315C244.299 191.201 243.728 191.144 243.099 191.144C242.814 191.144 242.471 191.087 242.185 191.087C241.899 191.087 241.557 191.087 241.271 191.087C240.642 191.144 240.014 191.087 239.442 191.144L237.613 191.373C235.156 191.83 232.813 192.631 230.585 193.774C228.356 194.918 226.413 196.519 224.642 198.291L224.013 198.977C223.784 199.206 223.556 199.435 223.384 199.664L222.242 201.15L221.27 202.751L221.041 203.152L220.813 203.552L220.413 204.41L220.013 205.267L219.67 206.125L219.327 206.983L219.156 207.44L219.041 207.897L218.584 209.727L218.298 211.614C218.184 212.243 218.184 212.872 218.127 213.501L218.07 214.416C218.07 214.702 218.07 215.045 218.07 215.331C218.127 215.96 218.127 216.589 218.184 217.218L218.47 219.105C218.984 221.563 219.784 223.965 220.984 226.195C222.184 228.368 223.784 230.369 225.613 232.142C226.07 232.542 226.527 232.999 227.042 233.4L228.527 234.543C229.613 235.229 230.642 235.915 231.785 236.373C236.299 238.603 241.557 239.175 246.471 238.26C251.385 237.288 255.957 234.772 259.386 231.112C262.757 227.453 264.929 222.764 265.5 217.847L265.615 216.646L266.929 215.845C268.129 215.216 269.9 214.13 271.386 213.158L276.129 210.242L285.558 204.41L304.416 192.745L342.075 169.301L379.733 145.858L398.591 134.136L403.277 131.22C404.077 130.705 404.763 130.305 405.448 129.733C406.134 129.218 406.706 128.589 407.277 127.961C409.506 125.273 410.591 121.842 410.534 118.526Z" fill="black"/>
</svg>
