<svg width="31" height="31" viewBox="0 0 31 31" fill="none" xmlns="http://www.w3.org/2000/svg">
<rect width="31" height="31" rx="8" fill="white" fill-opacity="0.2"/>
<path d="M18.5549 15.3942L15.6443 12.4836C15.4002 12.2395 15.4002 11.8439 15.6443 11.5998V11.5998C15.8883 11.3558 16.284 11.3558 16.528 11.5998L20.2403 15.3121C20.6308 15.7026 20.6308 16.3358 20.2403 16.7263L16.528 20.4386C16.284 20.6826 15.8883 20.6826 15.6443 20.4386V20.4386C15.4002 20.1945 15.4002 19.7989 15.6443 19.5548L18.5549 16.6442H9.20398C8.8588 16.6442 8.57898 16.3644 8.57898 16.0192V16.0192C8.57898 15.674 8.8588 15.3942 9.20398 15.3942H18.5549Z" fill="white"/>
</svg>
