<svg width="1753" height="1753" viewBox="0 0 1753 1753" fill="none" xmlns="http://www.w3.org/2000/svg">
<rect width="1753" height="1753" fill="#E5E5EA"/>
<path d="M876.5 862.223C946.739 862.223 1003.68 802.851 1003.68 729.612C1003.68 656.372 946.739 597 876.5 597C806.261 597 749.321 656.372 749.321 729.612C749.321 802.851 806.261 862.223 876.5 862.223Z" fill="black"/>
<path d="M1077.08 1156.61H675.924C667.663 1156.62 659.51 1154.76 652.098 1151.17C644.685 1147.59 638.21 1142.39 633.173 1135.96C628.136 1129.53 624.673 1122.05 623.05 1114.09C621.427 1106.14 621.688 1097.93 623.814 1090.09C653.694 980.567 755.496 899.834 876.5 899.834C997.504 899.834 1099.31 980.567 1129.19 1090.09C1131.31 1097.93 1131.57 1106.14 1129.95 1114.09C1128.33 1122.05 1124.86 1129.53 1119.83 1135.96C1114.79 1142.39 1108.32 1147.59 1100.9 1151.17C1093.49 1154.76 1085.34 1156.62 1077.08 1156.61Z" fill="black"/>
</svg>
