<svg width="79" height="79" viewBox="0 0 79 79" fill="none" xmlns="http://www.w3.org/2000/svg">
<path d="M21.8921 37.425V34.6077C21.8921 24.8832 29.7753 17 39.4998 17V17C49.2243 17 57.1075 24.8832 57.1075 34.6077V37.425" stroke="#FF7251" stroke-width="3"/>
<path d="M56.293 38.5704L56.293 51.4423C56.293 57.5586 51.3347 62.5169 45.2183 62.5169V62.5169" stroke="#FF7251" stroke-width="3"/>
<path d="M16.3491 45.4364C16.3491 41.4512 19.5798 38.2206 23.5649 38.2206C24.9245 38.2206 26.0267 39.3227 26.0267 40.6823V52.4795C26.0267 53.8391 24.9245 54.9412 23.5649 54.9412C19.5798 54.9412 16.3491 51.7106 16.3491 47.7254V45.4364Z" fill="#FFDCD4" stroke="#FF7251" stroke-width="3"/>
<path d="M62.6509 45.4364C62.6509 41.4512 59.4202 38.2206 55.4351 38.2206C54.0755 38.2206 52.9733 39.3227 52.9733 40.6823V52.4795C52.9733 53.8391 54.0755 54.9412 55.4351 54.9412C59.4202 54.9412 62.6509 51.7106 62.6509 47.7254V45.4364Z" fill="#FFDCD4" stroke="#FF7251" stroke-width="3"/>
<rect x="38.0723" y="59.7911" width="8.26894" height="5.4517" rx="2.72585" fill="#FFDCD4" stroke="#FF7251" stroke-width="3"/>
<path d="M79 40.0103C79 52.1841 73.6324 63.088 65.1637 70.4264C58.2605 76.4081 49.2967 79 39.5 79C29.7033 79 20.7395 76.4081 13.8363 70.4264C5.3676 63.088 0 52.1841 0 40.0103C0 17.9132 17.6848 0 39.5 0C61.3152 0 79 17.9132 79 40.0103Z" fill="#FF7251" fill-opacity="0.1"/>
</svg>
