<svg width="31" height="31" viewBox="0 0 31 31" fill="none" xmlns="http://www.w3.org/2000/svg">
<rect width="31" height="31" rx="8" fill="white" fill-opacity="0.2"/>
<path d="M13.6667 15.1667C13.9429 15.1667 14.1667 14.9429 14.1667 14.6667V10.6667C14.1667 10.3906 14.3906 10.1667 14.6667 10.1667H15.3334C15.6096 10.1667 15.8334 10.3906 15.8334 10.6667V14.6667C15.8334 14.9429 16.0573 15.1667 16.3334 15.1667H20.3334C20.6096 15.1667 20.8334 15.3906 20.8334 15.6667V16.3334C20.8334 16.6096 20.6096 16.8334 20.3334 16.8334H16.3334C16.0573 16.8334 15.8334 17.0573 15.8334 17.3334V21.3334C15.8334 21.6096 15.6096 21.8334 15.3334 21.8334H14.6667C14.3906 21.8334 14.1667 21.6096 14.1667 21.3334V17.3334C14.1667 17.0573 13.9429 16.8334 13.6667 16.8334H9.66675C9.39061 16.8334 9.16675 16.6096 9.16675 16.3334V15.6667C9.16675 15.3906 9.39061 15.1667 9.66675 15.1667H13.6667Z" fill="white"/>
</svg>
